<svg class="icon" viewBox="0 0 1024 1024" xmlns="http://www.w3.org/2000/svg" width="128" height="128"><defs><style/></defs><path d="M203.174 833.557h208.91V663.688c-24.228-5.78-41.796-20.818-41.796-38.973 0-18.109 17.545-33.17 41.796-38.95V415.896h-208.91v417.661zm459.592-286.923V415.896h-208.91v169.869c24.206 5.78 41.796 20.841 41.796 38.95 0 18.155-17.567 33.193-41.795 38.973v169.87h148.44a235.915 235.915 0 0160.47-286.924zm41.728-27.728a233.206 233.206 0 0141.818-17.003V353.282h119.651L432.948 45.743-.045 353.282h119.65V833.58h41.774V374.168h543.115v144.738zm212.07 180.82h-73.949v-73.972c0-15.829-12.802-28.677-28.654-28.677h-.158c-15.828 0-28.654 12.826-28.654 28.677v73.972h-73.971a28.677 28.677 0 00-28.677 28.676v.158c0 15.829 12.825 28.654 28.677 28.654h73.971v73.972c0 15.829 12.803 28.677 28.654 28.677h.158c15.829 0 28.654-12.826 28.654-28.677v-73.972h73.95c15.828 0 28.676-12.803 28.676-28.654v-.158a28.677 28.677 0 00-28.676-28.676zM813.872 518.228c-116.06 0-210.174 94.136-210.174 210.22 0 116.106 94.113 210.219 210.174 210.219 116.084 0 210.174-94.113 210.174-210.22 0-116.083-94.09-210.219-210.174-210.219zm0 394.156c-101.564 0-183.89-82.327-183.89-183.937a183.891 183.891 0 11367.804 0c0 101.61-82.35 183.937-183.914 183.937z"/></svg>