<?xml version="1.0" standalone="no"?><!DOCTYPE svg PUBLIC "-//W3C//DTD SVG 1.1//EN" "http://www.w3.org/Graphics/SVG/1.1/DTD/svg11.dtd"><svg t="1578299766981" class="icon" viewBox="0 0 1024 1024" version="1.1" xmlns="http://www.w3.org/2000/svg" p-id="18871" xmlns:xlink="http://www.w3.org/1999/xlink" width="200" height="200"><defs><style type="text/css"></style></defs><path d="M889.738 279.517L524.47 68.628a24.948 24.948 0 0 0-24.932 0l-365.275 210.89a24.933 24.933 0 0 0-12.466 21.593v421.778c0 8.906 4.75 17.14 12.466 21.594l365.275 210.889a24.941 24.941 0 0 0 24.932 0l365.27-210.89a24.939 24.939 0 0 0 12.465-21.593V301.111a24.939 24.939 0 0 0-12.466-21.594zM512.002 119.012L832.816 304.23l-133.432 77.04-320.815-185.222 133.433-77.036zM328.699 224.838l320.816 185.221-133.417 77.03c-1.217-0.183-2.433-0.374-3.701-0.374-1.5 0-2.95 0.188-4.373 0.441L191.184 304.23 328.7 224.838zM171.66 350.54l315.806 182.328v357.953L171.66 708.496V350.54z m680.68 357.956l-315.01 181.87V532.411L852.34 350.54v357.956z" p-id="18872"></path></svg>