<svg class="icon" viewBox="0 0 1024 1024" xmlns="http://www.w3.org/2000/svg" width="200" height="200"><defs><style/></defs><path d="M921.6 768H819.2V665.6c0-28.3-22.9-51.2-51.2-51.2s-51.2 22.9-51.2 51.2V768H614.4c-28.3 0-51.2 22.9-51.2 51.2 0 28.3 22.9 51.2 51.2 51.2h102.4v102.4c0 28.3 22.9 51.2 51.2 51.2s51.2-22.9 51.2-51.2V870.4h102.4c28.3 0 51.2-22.9 51.2-51.2 0-28.3-22.9-51.2-51.2-51.2zM153.60000000000002 307.2a307.2 307.2 0 10614.4 0 307.2 307.2 0 10-614.4 0z"/><path d="M605.1 641.1c-44.9-16.9-93.4-26.7-144.3-26.7-226.2 0-409.6 183.4-409.6 409.6h462c-32.4-42.9-52.4-95.7-52.4-153.6 0-101.1 59.2-187.8 144.3-229.3z"/></svg>