<svg class="icon" viewBox="0 0 1024 1024" xmlns="http://www.w3.org/2000/svg" width="128" height="128"><defs><style/></defs><path d="M591.53 511.147l416.342-416.342a54.528 54.528 0 000-76.629l-2.304-2.304a54.528 54.528 0 00-76.63 0L512.513 432.811 96.256 15.872a54.528 54.528 0 00-76.63 0l-2.389 2.304a53.504 53.504 0 000 76.63l416.427 416.426L17.237 927.573a54.528 54.528 0 000 76.63l2.304 2.304a54.528 54.528 0 0076.63 0L512.597 590.08l416.342 416.427a54.528 54.528 0 0076.629 0l2.304-2.304a54.528 54.528 0 000-76.63L591.445 511.147z"/></svg>