<?xml version="1.0" standalone="no"?><!DOCTYPE svg PUBLIC "-//W3C//DTD SVG 1.1//EN" "http://www.w3.org/Graphics/SVG/1.1/DTD/svg11.dtd"><svg t="1609232409761" class="icon" viewBox="0 0 1024 1024" version="1.1" xmlns="http://www.w3.org/2000/svg" p-id="6862" xmlns:xlink="http://www.w3.org/1999/xlink" width="200" height="200"><defs><style type="text/css"></style></defs><path d="M608.1 926.2c-2.1 0-4.2-0.2-6.3-0.4l-433.5-61.9c-22-3.2-38.4-22-38.4-44.3V200.4c0-22.2 16.4-41.1 38.4-44.2l433.5-61.9c12.5-1.8 25.8 1.9 35.6 10.5 9.8 8.5 15.4 20.8 15.4 33.8v743c0 13-5.6 25.3-15.4 33.8-8.3 6.9-18.7 10.8-29.3 10.8zM219.3 780.8l344 49.2V190l-344 49.1v541.7z" fill="#3F85FF" p-id="6863"></path><path d="M855.7 802.3H608.1c-24.7 0-44.7-20-44.7-44.7V262.3c0-24.7 20-44.7 44.7-44.7h247.7c24.7 0 44.7 20 44.7 44.7v495.3c0 24.7-20.1 44.7-44.8 44.7z m-202.9-89.4H811V307H652.8v405.9z" fill="#3F85FF" p-id="6864"></path><path d="M346 536.4l-54.1-150.3h82.6l15.3 55.7c4.1 14.9 8.3 31 13.6 50.8 10.7-20.2 20.2-36.3 29.3-50.8l34.3-55.7h79.3L436.8 539.7 495 696.1h-82.6l-16.9-62.3c-4.5-16.5-8.7-32.6-14-51.6-10.7 19.4-20.6 35.5-30.5 51.6l-38 62.3h-82.6L346 536.4z" fill="#A4BEEC" p-id="6865"></path></svg>