<?xml version="1.0" standalone="no"?><!DOCTYPE svg PUBLIC "-//W3C//DTD SVG 1.1//EN" "http://www.w3.org/Graphics/SVG/1.1/DTD/svg11.dtd"><svg t="1578299714767" class="icon" viewBox="0 0 1024 1024" version="1.1" xmlns="http://www.w3.org/2000/svg" p-id="17805" xmlns:xlink="http://www.w3.org/1999/xlink" width="200" height="200"><defs><style type="text/css"></style></defs><path d="M0 468.992h159.744v42.496H0v-42.496z m863.232 0h159.744v42.496H863.232v-42.496zM0 0v384h42.496V42.496h939.008v339.968H1024V0H0z m981.504 980.992H42.496v-376.32H0V1024h1024V605.184h-42.496v375.808z" p-id="17806"></path><path d="M400.896 237.056l40.448-28.672c45.568 28.16 95.232 99.84 150.016 215.552 75.776 166.4 158.72 267.776 247.296 304.128l-42.496 53.76C707.072 729.088 625.152 617.472 549.376 448c-5.632-13.312-11.776-26.112-17.92-38.912C484.352 570.368 396.8 696.32 268.288 785.92c-10.752-16.384-23.552-31.744-37.376-45.568 132.096-82.944 220.672-214.528 266.24-394.24-32.256-53.76-64-90.112-96.256-109.056z" p-id="17807"></path></svg>