<?xml version="1.0" standalone="no"?><!DOCTYPE svg PUBLIC "-//W3C//DTD SVG 1.1//EN" "http://www.w3.org/Graphics/SVG/1.1/DTD/svg11.dtd"><svg t="1578299735956" class="icon" viewBox="0 0 1029 1024" version="1.1" xmlns="http://www.w3.org/2000/svg" p-id="17930" xmlns:xlink="http://www.w3.org/1999/xlink" width="200.9765625" height="200"><defs><style type="text/css"></style></defs><path d="M0.527 468.74h159.81v42.242H0.526V468.74z m861.646 0h159.81v42.242h-159.81V468.74zM0.018 0.509v383.237h42.243V42.75h936.97V381.71h42.243V0C1021.474 0.509 0.018 0.509 0.018 0.509z m979.213 979.213H42.261V604.119H0.018v417.845h1021.965V603.61h-41.734v376.112h-1.018z" p-id="17931"></path><path d="M689.132 528.286v-21.884H531.358v234.624h175.587V570.02h50.894v237.678h-50.894v-21.376H256.527V570.02h50.895v171.006h172.024V505.893H272.305V291.117h50.894v169.988h156.247V236.151h51.912v224.954h157.774V291.117h50.894v237.17h-50.894z" p-id="17932"></path></svg>