<?xml version="1.0" standalone="no"?><!DOCTYPE svg PUBLIC "-//W3C//DTD SVG 1.1//EN" "http://www.w3.org/Graphics/SVG/1.1/DTD/svg11.dtd"><svg t="1606457558534" class="icon" viewBox="0 0 1024 1024" version="1.1" xmlns="http://www.w3.org/2000/svg" p-id="2299" xmlns:xlink="http://www.w3.org/1999/xlink" width="200" height="200"><defs><style type="text/css"></style></defs><path d="M776.533333 917.333333H247.466667c-46.933333 0-87.466667-40.533333-87.466667-91.733333V384c0-17.066667 14.933333-32 32-32s32 14.933333 32 32v441.6c0 14.933333 10.666667 27.733333 23.466667 27.733333h531.2c12.8 0 23.466667-12.8 23.466666-27.733333V384c0-17.066667 14.933333-32 32-32s32 14.933333 32 32v441.6c-2.133333 51.2-40.533333 91.733333-89.6 91.733333z" p-id="2300"></path><path d="M885.333333 448c-6.4 0-12.8-2.133333-19.2-6.4L512 179.2 157.866667 441.6c-14.933333 10.666667-34.133333 8.533333-44.8-6.4s-8.533333-34.133333 6.4-44.8l373.333333-277.333333c10.666667-8.533333 27.733333-8.533333 38.4 0l373.333333 277.333333c14.933333 10.666667 17.066667 29.866667 6.4 44.8-6.4 8.533333-14.933333 12.8-25.6 12.8zM650.666667 533.333333h-277.333334c-17.066667 0-32-14.933333-32-32s14.933333-32 32-32h277.333334c17.066667 0 32 14.933333 32 32s-14.933333 32-32 32zM650.666667 661.333333h-277.333334c-17.066667 0-32-14.933333-32-32s14.933333-32 32-32h277.333334c17.066667 0 32 14.933333 32 32s-14.933333 32-32 32zM650.666667 789.333333h-277.333334c-17.066667 0-32-14.933333-32-32s14.933333-32 32-32h277.333334c17.066667 0 32 14.933333 32 32s-14.933333 32-32 32z" p-id="2301"></path></svg>