<?xml version="1.0" standalone="no"?><!DOCTYPE svg PUBLIC "-//W3C//DTD SVG 1.1//EN" "http://www.w3.org/Graphics/SVG/1.1/DTD/svg11.dtd"><svg t="1606457605348" class="icon" viewBox="0 0 1024 1024" version="1.1" xmlns="http://www.w3.org/2000/svg" p-id="3673" xmlns:xlink="http://www.w3.org/1999/xlink" width="200" height="200"><defs><style type="text/css"></style></defs><path d="M821.333333 917.333333h-618.666666C149.333333 917.333333 106.666667 874.666667 106.666667 821.333333v-469.333333c0-17.066667 14.933333-32 32-32h746.666666c17.066667 0 32 14.933333 32 32v469.333333c0 53.333333-42.666667 96-96 96zM170.666667 384v437.333333c0 17.066667 14.933333 32 32 32h618.666666c17.066667 0 32-14.933333 32-32V384H170.666667z" p-id="3674"></path><path d="M885.333333 384h-746.666666c-10.666667 0-21.333333-6.4-27.733334-14.933333s-6.4-21.333333-2.133333-32l89.6-177.066667C215.466667 128 247.466667 106.666667 285.866667 106.666667h471.466666c40.533333 0 74.666667 23.466667 89.6 59.733333l68.266667 172.8c4.266667 10.666667 2.133333 21.333333-4.266667 29.866667s-14.933333 14.933333-25.6 14.933333zM189.866667 320h648.533333l-51.2-130.133333c-6.4-10.666667-17.066667-19.2-29.866667-19.2H285.866667c-12.8 0-23.466667 6.4-27.733334 17.066666L189.866667 320z" p-id="3675"></path><path d="M821.333333 277.333333h-618.666666c-17.066667 0-32-14.933333-32-32S185.6 213.333333 202.666667 213.333333h618.666666c17.066667 0 32 14.933333 32 32s-14.933333 32-32 32zM661.333333 586.666667H362.666667c-17.066667 0-32-14.933333-32-32s14.933333-32 32-32h298.666666c17.066667 0 32 14.933333 32 32s-14.933333 32-32 32z" p-id="3676"></path><path d="M362.666667 586.666667c-8.533333 0-14.933333-2.133333-21.333334-8.533334-12.8-10.666667-14.933333-32-2.133333-44.8l74.666667-85.333333c10.666667-12.8 32-14.933333 44.8-2.133333 12.8 10.666667 14.933333 32 2.133333 44.8l-74.666667 85.333333c-6.4 6.4-14.933333 10.666667-23.466666 10.666667zM661.333333 714.666667H362.666667c-17.066667 0-32-14.933333-32-32s14.933333-32 32-32h298.666666c17.066667 0 32 14.933333 32 32s-14.933333 32-32 32z" p-id="3677"></path><path d="M586.666667 800c-8.533333 0-14.933333-2.133333-21.333334-8.533333-12.8-10.666667-14.933333-32-2.133333-44.8l74.666667-85.333334c10.666667-12.8 32-14.933333 44.8-2.133333 12.8 10.666667 14.933333 32 2.133333 44.8l-74.666667 85.333333c-6.4 6.4-14.933333 10.666667-23.466666 10.666667z" p-id="3678"></path></svg>