<?xml version="1.0" standalone="no"?><!DOCTYPE svg PUBLIC "-//W3C//DTD SVG 1.1//EN" "http://www.w3.org/Graphics/SVG/1.1/DTD/svg11.dtd"><svg t="1606457598693" class="icon" viewBox="0 0 1024 1024" version="1.1" xmlns="http://www.w3.org/2000/svg" p-id="3538" xmlns:xlink="http://www.w3.org/1999/xlink" width="200" height="200"><defs><style type="text/css"></style></defs><path d="M885.333333 917.333333h-746.666666c-17.066667 0-32-14.933333-32-32v-746.666666C106.666667 121.6 121.6 106.666667 138.666667 106.666667S170.666667 121.6 170.666667 138.666667V853.333333h714.666666c17.066667 0 32 14.933333 32 32s-14.933333 32-32 32z" p-id="3539"></path><path d="M241.066667 817.066667c-10.666667 0-19.2-4.266667-25.6-12.8-10.666667-14.933333-8.533333-34.133333 6.4-44.8l238.933333-177.066667c8.533333-6.4 19.2-8.533333 27.733333-4.266667l132.266667 38.4L838.4 405.333333c12.8-12.8 32-12.8 44.8 0 12.8 12.8 12.8 32 0 44.8L650.666667 674.133333c-8.533333 8.533333-19.2 10.666667-32 8.533334l-134.4-38.4L260.266667 810.666667c-6.4 4.266667-12.8 6.4-19.2 6.4zM309.333333 533.333333c-6.4 0-14.933333-2.133333-21.333333-8.533333-12.8-10.666667-14.933333-32-4.266667-44.8l128-149.333333c10.666667-12.8 32-14.933333 44.8-4.266667l125.866667 106.666667 170.666667-189.866667c12.8-12.8 32-14.933333 44.8-2.133333 12.8 12.8 14.933333 32 2.133333 44.8l-192 213.333333c-10.666667 12.8-32 14.933333-44.8 2.133333l-125.866667-106.666666-106.666666 125.866666c-4.266667 8.533333-12.8 12.8-21.333334 12.8z" p-id="3540"></path></svg>