<?xml version="1.0" standalone="no"?><!DOCTYPE svg PUBLIC "-//W3C//DTD SVG 1.1//EN" "http://www.w3.org/Graphics/SVG/1.1/DTD/svg11.dtd"><svg t="1606457563937" class="icon" viewBox="0 0 1024 1024" version="1.1" xmlns="http://www.w3.org/2000/svg" p-id="2436" xmlns:xlink="http://www.w3.org/1999/xlink" width="200" height="200"><defs><style type="text/css"></style></defs><path d="M821.333333 917.333333h-618.666666C149.333333 917.333333 106.666667 874.666667 106.666667 821.333333v-426.666666c0-17.066667 14.933333-32 32-32h746.666666c17.066667 0 32 14.933333 32 32v426.666666c0 53.333333-42.666667 96-96 96zM170.666667 426.666667v394.666666c0 17.066667 14.933333 32 32 32h618.666666c17.066667 0 32-14.933333 32-32V426.666667H170.666667z" p-id="2437"></path><path d="M885.333333 426.666667h-746.666666c-10.666667 0-21.333333-6.4-27.733334-17.066667s-6.4-21.333333 0-32l149.333334-256c6.4-8.533333 17.066667-14.933333 27.733333-14.933333h469.333333c12.8 0 23.466667 6.4 27.733334 17.066666l128 256c4.266667 10.666667 4.266667 21.333333-2.133334 32-4.266667 8.533333-14.933333 14.933333-25.6 14.933334zM194.133333 362.666667h640l-96-192H307.2l-113.066667 192z" p-id="2438"></path><path d="M480 138.666667h64v234.666666h-64zM618.666667 684.8c-6.4 0-12.8-2.133333-17.066667-4.266667l-85.333333-53.333333-93.866667 55.466667c-10.666667 6.4-21.333333 6.4-32 0s-17.066667-17.066667-17.066667-27.733334V426.666667c0-17.066667 14.933333-32 32-32s32 14.933333 32 32v170.666666l64-36.266666c10.666667-6.4 23.466667-6.4 34.133334 0l53.333333 34.133333V426.666667c0-17.066667 14.933333-32 32-32s32 14.933333 32 32v226.133333c0 10.666667-6.4 23.466667-17.066667 27.733333-6.4 4.266667-12.8 4.266667-17.066666 4.266667z" p-id="2439"></path></svg>