<?xml version="1.0" standalone="no"?><!DOCTYPE svg PUBLIC "-//W3C//DTD SVG 1.1//EN" "http://www.w3.org/Graphics/SVG/1.1/DTD/svg11.dtd"><svg t="1606457537529" class="icon" viewBox="0 0 1024 1024" version="1.1" xmlns="http://www.w3.org/2000/svg" p-id="1887" xmlns:xlink="http://www.w3.org/1999/xlink" width="200" height="200"><defs><style type="text/css"></style></defs><path d="M522.666667 917.333333h-320C149.333333 917.333333 106.666667 874.666667 106.666667 821.333333v-618.666666C106.666667 149.333333 149.333333 106.666667 202.666667 106.666667h618.666666C874.666667 106.666667 917.333333 149.333333 917.333333 202.666667V512c0 17.066667-14.933333 32-32 32S853.333333 529.066667 853.333333 512V202.666667c0-17.066667-14.933333-32-32-32h-618.666666C185.6 170.666667 170.666667 185.6 170.666667 202.666667v618.666666c0 17.066667 14.933333 32 32 32h320c17.066667 0 32 14.933333 32 32s-14.933333 32-32 32z" p-id="1888"></path><path d="M629.333333 490.666667h-341.333333c-17.066667 0-32-14.933333-32-32s14.933333-32 32-32h341.333333c17.066667 0 32 14.933333 32 32s-14.933333 32-32 32zM736 341.333333h-448c-17.066667 0-32-14.933333-32-32s14.933333-32 32-32h448c17.066667 0 32 14.933333 32 32s-14.933333 32-32 32zM759.466667 928c-17.066667 0-32-14.933333-32-32V608c0-17.066667 14.933333-32 32-32s32 14.933333 32 32V896c0 17.066667-12.8 32-32 32z" p-id="1889"></path><path d="M896 740.266667c-8.533333 0-17.066667-2.133333-23.466667-8.533334l-106.666666-106.666666c-4.266667-4.266667-8.533333-4.266667-12.8 0l-106.666667 106.666666c-12.8 12.8-32 12.8-44.8 0-12.8-12.8-12.8-32 0-44.8l106.666667-106.666666c27.733333-27.733333 74.666667-27.733333 104.533333 0l106.666667 106.666666c12.8 12.8 12.8 32 0 44.8-6.4 6.4-14.933333 8.533333-23.466667 8.533334zM458.666667 640h-170.666667c-17.066667 0-32-14.933333-32-32s14.933333-32 32-32h170.666667c17.066667 0 32 14.933333 32 32s-14.933333 32-32 32z" p-id="1890"></path></svg>