<?xml version="1.0" standalone="no"?><!DOCTYPE svg PUBLIC "-//W3C//DTD SVG 1.1//EN" "http://www.w3.org/Graphics/SVG/1.1/DTD/svg11.dtd"><svg t="1606457577770" class="icon" viewBox="0 0 1024 1024" version="1.1" xmlns="http://www.w3.org/2000/svg" p-id="2851" xmlns:xlink="http://www.w3.org/1999/xlink" width="200" height="200"><defs><style type="text/css"></style></defs><path d="M949.333333 853.333333h-874.666666c-17.066667 0-32-14.933333-32-32v-618.666666C42.666667 185.6 57.6 170.666667 74.666667 170.666667h874.666666c17.066667 0 32 14.933333 32 32v618.666666c0 17.066667-14.933333 32-32 32zM106.666667 789.333333h810.666666V234.666667H106.666667v554.666666z" p-id="2852"></path><path d="M928 426.666667h-853.333333c-17.066667 0-32-14.933333-32-32S57.6 362.666667 74.666667 362.666667h853.333333c17.066667 0 32 14.933333 32 32s-14.933333 32-32 32zM394.666667 576h-170.666667c-17.066667 0-32-14.933333-32-32s14.933333-32 32-32h170.666667c17.066667 0 32 14.933333 32 32s-14.933333 32-32 32zM565.333333 704h-341.333333c-17.066667 0-32-14.933333-32-32s14.933333-32 32-32h341.333333c17.066667 0 32 14.933333 32 32s-14.933333 32-32 32z" p-id="2853"></path></svg>