<?xml version="1.0" standalone="no"?><!DOCTYPE svg PUBLIC "-//W3C//DTD SVG 1.1//EN" "http://www.w3.org/Graphics/SVG/1.1/DTD/svg11.dtd"><svg t="1606457610620" class="icon" viewBox="0 0 1024 1024" version="1.1" xmlns="http://www.w3.org/2000/svg" p-id="3811" xmlns:xlink="http://www.w3.org/1999/xlink" width="200" height="200"><defs><style type="text/css"></style></defs><path d="M725.333333 300.8h-64c0-66.133333-66.133333-119.466667-149.333333-119.466667s-149.333333 53.333333-149.333333 119.466667h-64c0-100.266667 96-183.466667 213.333333-183.466667s213.333333 83.2 213.333333 183.466667z" p-id="3812"></path><path d="M821.333333 917.333333h-618.666666C149.333333 917.333333 106.666667 874.666667 106.666667 821.333333v-426.666666C106.666667 341.333333 149.333333 298.666667 202.666667 298.666667h618.666666c53.333333 0 96 42.666667 96 96v426.666666c0 53.333333-42.666667 96-96 96z m-618.666666-554.666666c-17.066667 0-32 14.933333-32 32v426.666666c0 17.066667 14.933333 32 32 32h618.666666c17.066667 0 32-14.933333 32-32v-426.666666c0-17.066667-14.933333-32-32-32h-618.666666z" p-id="3813"></path><path d="M885.333333 512h-725.333333c-17.066667 0-32-14.933333-32-32S142.933333 448 160 448h725.333333c17.066667 0 32 14.933333 32 32s-14.933333 32-32 32z" p-id="3814"></path><path d="M608 640h-192c-40.533333 0-74.666667-34.133333-74.666667-74.666667v-85.333333c0-17.066667 14.933333-32 32-32h277.333334c17.066667 0 32 14.933333 32 32v85.333333c0 40.533333-34.133333 74.666667-74.666667 74.666667zM405.333333 512v53.333333c0 6.4 4.266667 10.666667 10.666667 10.666667h192c6.4 0 10.666667-4.266667 10.666667-10.666667V512H405.333333z" p-id="3815"></path></svg>