<?xml version="1.0" standalone="no"?><!DOCTYPE svg PUBLIC "-//W3C//DTD SVG 1.1//EN" "http://www.w3.org/Graphics/SVG/1.1/DTD/svg11.dtd"><svg t="1606457570731" class="icon" viewBox="0 0 1024 1024" version="1.1" xmlns="http://www.w3.org/2000/svg" p-id="2574" xmlns:xlink="http://www.w3.org/1999/xlink" width="200" height="200"><defs><style type="text/css"></style></defs><path d="M492.8 917.333333H213.333333c-59.733333 0-106.666667-49.066667-106.666666-106.666666V277.333333c0-59.733333 49.066667-106.666667 106.666666-106.666666h149.333334c17.066667 0 32 14.933333 32 32S379.733333 234.666667 362.666667 234.666667h-149.333334c-23.466667 0-42.666667 19.2-42.666666 42.666666v533.333334c0 23.466667 19.2 42.666667 42.666666 42.666666h277.333334c17.066667 0 32 14.933333 32 32s-12.8 32-29.866667 32zM885.333333 544c-17.066667 0-32-14.933333-32-32V277.333333c0-23.466667-19.2-42.666667-42.666666-42.666666h-149.333334c-17.066667 0-32-14.933333-32-32S644.266667 170.666667 661.333333 170.666667h149.333334c59.733333 0 106.666667 49.066667 106.666666 106.666666v234.666667c0 17.066667-14.933333 32-32 32z" p-id="2575"></path><path d="M608 298.666667h-192c-40.533333 0-74.666667-34.133333-74.666667-74.666667v-42.666667C341.333333 140.8 375.466667 106.666667 416 106.666667h192C648.533333 106.666667 682.666667 140.8 682.666667 181.333333v42.666667c0 40.533333-34.133333 74.666667-74.666667 74.666667z m-192-128c-6.4 0-10.666667 4.266667-10.666667 10.666666v42.666667c0 6.4 4.266667 10.666667 10.666667 10.666667h192c6.4 0 10.666667-4.266667 10.666667-10.666667v-42.666667c0-6.4-4.266667-10.666667-10.666667-10.666666h-192zM458.666667 576h-170.666667c-17.066667 0-32-14.933333-32-32s14.933333-32 32-32h170.666667c17.066667 0 32 14.933333 32 32s-14.933333 32-32 32zM736 426.666667h-448c-17.066667 0-32-14.933333-32-32s14.933333-32 32-32h448c17.066667 0 32 14.933333 32 32s-14.933333 32-32 32zM736 917.333333c-100.266667 0-181.333333-81.066667-181.333333-181.333333s81.066667-181.333333 181.333333-181.333333 181.333333 81.066667 181.333333 181.333333-81.066667 181.333333-181.333333 181.333333z m0-320c-76.8 0-138.666667 61.866667-138.666667 138.666667s61.866667 138.666667 138.666667 138.666667 138.666667-61.866667 138.666667-138.666667-61.866667-138.666667-138.666667-138.666667z" p-id="2576"></path><path d="M736 778.666667c-12.8 0-21.333333-8.533333-21.333333-21.333334v-106.666666c0-12.8 8.533333-21.333333 21.333333-21.333334s21.333333 8.533333 21.333333 21.333334v106.666666c0 12.8-8.533333 21.333333-21.333333 21.333334z" p-id="2577"></path><path d="M778.666667 821.333333c-6.4 0-10.666667-2.133333-14.933334-6.4l-42.666666-42.666666c-8.533333-8.533333-8.533333-21.333333 0-29.866667s21.333333-8.533333 29.866666 0l42.666667 42.666667c8.533333 8.533333 8.533333 21.333333 0 29.866666-4.266667 4.266667-8.533333 6.4-14.933333 6.4z" p-id="2578"></path></svg>