<?xml version="1.0" standalone="no"?><!DOCTYPE svg PUBLIC "-//W3C//DTD SVG 1.1//EN" "http://www.w3.org/Graphics/SVG/1.1/DTD/svg11.dtd"><svg t="1606457590984" class="icon" viewBox="0 0 1024 1024" version="1.1" xmlns="http://www.w3.org/2000/svg" p-id="3260" xmlns:xlink="http://www.w3.org/1999/xlink" width="200" height="200"><defs><style type="text/css"></style></defs><path d="M512 917.333333c-8.533333 0-17.066667-4.266667-23.466667-10.666666L179.2 569.6c-96-108.8-96-283.733333 0-392.533333C219.733333 132.266667 273.066667 106.666667 334.933333 106.666667c61.866667 0 125.866667 25.6 177.066667 72.533333C563.2 132.266667 627.2 106.666667 689.066667 106.666667c59.733333 0 115.2 25.6 155.733333 70.4 76.8 87.466667 93.866667 219.733333 42.666667 326.4-8.533333 14.933333-27.733333 23.466667-42.666667 14.933333-14.933333-8.533333-23.466667-27.733333-14.933333-42.666667 40.533333-83.2 27.733333-189.866667-32-256C768 187.733333 731.733333 170.666667 689.066667 170.666667c-53.333333 0-110.933333 27.733333-153.6 74.666666-12.8 12.8-36.266667 12.8-46.933334 0-42.666667-46.933333-100.266667-74.666667-153.6-74.666666-42.666667 0-78.933333 17.066667-106.666666 49.066666-74.666667 85.333333-74.666667 221.866667 0 307.2L512 838.4c12.8-10.666667 29.866667-10.666667 42.666667 0 12.8 12.8 14.933333 32 2.133333 44.8l-21.333333 23.466667c-6.4 6.4-14.933333 10.666667-23.466667 10.666666z" p-id="3261"></path><path d="M652.8 522.666667H371.2c-17.066667 0-32-14.933333-32-32s14.933333-32 32-32h281.6c17.066667 0 32 14.933333 32 32s-14.933333 32-32 32z" p-id="3262"></path><path d="M512 663.466667c-17.066667 0-32-14.933333-32-32V349.866667c0-17.066667 14.933333-32 32-32s32 14.933333 32 32v281.6c0 17.066667-14.933333 32-32 32zM742.4 906.666667c-91.733333 0-166.4-74.666667-166.4-166.4s74.666667-166.4 166.4-166.4 166.4 74.666667 166.4 166.4-76.8 166.4-166.4 166.4z m0-288c-68.266667 0-123.733333 55.466667-123.733333 123.733333s55.466667 123.733333 123.733333 123.733333 123.733333-55.466667 123.733333-123.733333-57.6-123.733333-123.733333-123.733333z" p-id="3263"></path><path d="M742.4 765.866667c-12.8 0-21.333333-8.533333-21.333333-21.333334v-91.733333c0-12.8 8.533333-21.333333 21.333333-21.333333s21.333333 8.533333 21.333333 21.333333v91.733333c0 12.8-10.666667 21.333333-21.333333 21.333334z" p-id="3264"></path><path d="M808.533333 765.866667h-64c-12.8 0-21.333333-8.533333-21.333333-21.333334s8.533333-21.333333 21.333333-21.333333h64c12.8 0 21.333333 8.533333 21.333334 21.333333s-10.666667 21.333333-21.333334 21.333334z" p-id="3265"></path></svg>