<?xml version="1.0" standalone="no"?><!DOCTYPE svg PUBLIC "-//W3C//DTD SVG 1.1//EN" "http://www.w3.org/Graphics/SVG/1.1/DTD/svg11.dtd"><svg t="1606457595255" class="icon" viewBox="0 0 1024 1024" version="1.1" xmlns="http://www.w3.org/2000/svg" p-id="3400" xmlns:xlink="http://www.w3.org/1999/xlink" width="200" height="200"><defs><style type="text/css"></style></defs><path d="M433.066667 736c-2.133333 0-6.4 0-8.533334-2.133333-53.333333-14.933333-102.4-42.666667-140.8-78.933334-6.4-6.4-10.666667-17.066667-10.666666-25.6l8.533333-76.8-70.4-29.866666c-8.533333-4.266667-14.933333-10.666667-19.2-21.333334-12.8-49.066667-14.933333-98.133333-6.4-147.2 0-4.266667 2.133333-6.4 2.133333-10.666666l4.266667-4.266667c2.133333-8.533333 8.533333-17.066667 17.066667-21.333333l70.4-32-8.533334-76.8c-2.133333-10.666667 2.133333-19.2 8.533334-25.6 38.4-38.4 87.466667-66.133333 140.8-83.2 8.533333-2.133333 19.2-2.133333 27.733333 4.266666L509.866667 149.333333l61.866666-46.933333c8.533333-6.4 17.066667-8.533333 27.733334-4.266667 53.333333 14.933333 102.4 42.666667 140.8 78.933334 6.4 6.4 10.666667 17.066667 10.666666 25.6l-8.533333 76.8 70.4 29.866666c8.533333 4.266667 14.933333 10.666667 19.2 21.333334 12.8 49.066667 14.933333 98.133333 6.4 147.2 0 4.266667-2.133333 6.4-2.133333 10.666666l-4.266667 4.266667c-2.133333 8.533333-8.533333 17.066667-17.066667 21.333333l-70.4 32 8.533334 76.8c2.133333 10.666667-2.133333 19.2-8.533334 25.6-38.4 38.4-87.466667 66.133333-140.8 83.2-8.533333 2.133333-19.2 0-27.733333-4.266666L514.133333 682.666667l-61.866666 46.933333c-4.266667 4.266667-10.666667 6.4-19.2 6.4zM339.2 618.666667c25.6 21.333333 55.466667 38.4 87.466667 49.066666l68.266666-51.2c10.666667-8.533333 25.6-8.533333 38.4 0l68.266667 49.066667c32-10.666667 61.866667-29.866667 87.466667-51.2l-10.666667-83.2c-2.133333-12.8 6.4-27.733333 19.2-32l76.8-34.133333c6.4-34.133333 6.4-68.266667-2.133333-100.266667l-76.8-34.133333c-12.8-6.4-21.333333-19.2-19.2-32l8.533333-83.2c-25.6-21.333333-55.466667-38.4-87.466667-49.066667L529.066667 213.333333c-10.666667 8.533333-25.6 8.533333-38.4 0l-68.266667-49.066666c-32 10.666667-61.866667 29.866667-87.466667 51.2l10.666667 83.2c2.133333 12.8-6.4 27.733333-19.2 32l-76.8 34.133333c-6.4 34.133333-6.4 68.266667 2.133333 100.266667l76.8 34.133333c12.8 6.4 21.333333 19.2 19.2 32l-8.533333 87.466667z m462.933333-132.266667z" p-id="3401"></path><path d="M516.266667 531.2c-64 0-115.2-51.2-115.2-115.2s51.2-115.2 115.2-115.2 115.2 51.2 115.2 115.2-51.2 115.2-115.2 115.2z m0-185.6c-40.533333 0-72.533333 32-72.533334 72.533333s32 72.533333 72.533334 72.533334 72.533333-32 72.533333-72.533334-32-72.533333-72.533333-72.533333zM821.333333 917.333333h-618.666666C149.333333 917.333333 106.666667 874.666667 106.666667 821.333333v-234.666666c0-17.066667 14.933333-32 32-32s32 14.933333 32 32v234.666666c0 17.066667 14.933333 32 32 32h618.666666c17.066667 0 32-14.933333 32-32v-234.666666c0-17.066667 14.933333-32 32-32s32 14.933333 32 32v234.666666c0 53.333333-42.666667 96-96 96z" p-id="3402"></path><path d="M714.666667 832h-405.333334c-17.066667 0-32-14.933333-32-32s14.933333-32 32-32h405.333334c17.066667 0 32 14.933333 32 32s-14.933333 32-32 32z" p-id="3403"></path></svg>