<?xml version="1.0" standalone="no"?><!DOCTYPE svg PUBLIC "-//W3C//DTD SVG 1.1//EN" "http://www.w3.org/Graphics/SVG/1.1/DTD/svg11.dtd"><svg t="1606457587414" class="icon" viewBox="0 0 1024 1024" version="1.1" xmlns="http://www.w3.org/2000/svg" p-id="3124" xmlns:xlink="http://www.w3.org/1999/xlink" width="200" height="200"><defs><style type="text/css"></style></defs><path d="M885.333333 917.333333h-746.666666c-17.066667 0-32-14.933333-32-32S121.6 853.333333 138.666667 853.333333h746.666666c17.066667 0 32 14.933333 32 32s-14.933333 32-32 32z" p-id="3125"></path><path d="M672 917.333333H170.666667V202.666667C170.666667 149.333333 219.733333 106.666667 281.6 106.666667h277.333333c61.866667 0 110.933333 42.666667 110.933334 96V917.333333zM234.666667 853.333333h373.333333V202.666667c0-17.066667-21.333333-32-46.933333-32h-277.333334C256 170.666667 234.666667 185.6 234.666667 202.666667V853.333333z" p-id="3126"></path><path d="M864 917.333333h-298.666667c-17.066667 0-32-14.933333-32-32s14.933333-32 32-32h234.666667V394.666667c0-17.066667-12.8-32-29.866667-32h-123.733333c-17.066667 0-32-14.933333-32-32s14.933333-32 32-32h123.733333c51.2 0 93.866667 42.666667 93.866667 96V917.333333zM411.733333 426.666667h-81.066666c-17.066667 0-32-14.933333-32-32s14.933333-32 32-32h81.066666c17.066667 0 32 14.933333 32 32s-14.933333 32-32 32zM490.666667 725.333333h-160c-17.066667 0-32-14.933333-32-32s14.933333-32 32-32H490.666667c17.066667 0 32 14.933333 32 32S507.733333 725.333333 490.666667 725.333333zM490.666667 576h-160c-17.066667 0-32-14.933333-32-32s14.933333-32 32-32H490.666667c17.066667 0 32 14.933333 32 32S507.733333 576 490.666667 576z" p-id="3127"></path></svg>