<?xml version="1.0" standalone="no"?><!DOCTYPE svg PUBLIC "-//W3C//DTD SVG 1.1//EN" "http://www.w3.org/Graphics/SVG/1.1/DTD/svg11.dtd"><svg t="1606457573865" class="icon" viewBox="0 0 1024 1024" version="1.1" xmlns="http://www.w3.org/2000/svg" p-id="2713" xmlns:xlink="http://www.w3.org/1999/xlink" width="200" height="200"><defs><style type="text/css"></style></defs><path d="M480 917.333333H247.466667c-46.933333 0-87.466667-40.533333-87.466667-91.733333V384c0-17.066667 14.933333-32 32-32s32 14.933333 32 32v441.6c0 14.933333 10.666667 27.733333 23.466667 27.733333h232.533333c17.066667 0 32 14.933333 32 32s-14.933333 32-32 32zM832 522.666667c-17.066667 0-32-14.933333-32-32v-106.666667c0-17.066667 14.933333-32 32-32s32 14.933333 32 32v106.666667c0 19.2-14.933333 32-32 32z" p-id="2714"></path><path d="M885.333333 448c-6.4 0-12.8-2.133333-19.2-6.4L512 179.2 157.866667 441.6c-14.933333 10.666667-34.133333 8.533333-44.8-6.4s-8.533333-34.133333 6.4-44.8l373.333333-277.333333c10.666667-8.533333 27.733333-8.533333 38.4 0l373.333333 277.333333c14.933333 10.666667 17.066667 29.866667 6.4 44.8-6.4 8.533333-14.933333 12.8-25.6 12.8zM689.066667 917.333333H682.666667c-29.866667-8.533333-57.6-23.466667-78.933334-44.8-4.266667-4.266667-6.4-10.666667-6.4-17.066666l4.266667-38.4-36.266667-14.933334c-6.4-2.133333-10.666667-8.533333-12.8-14.933333-6.4-27.733333-8.533333-55.466667-2.133333-83.2 0-2.133333 0-4.266667 2.133333-6.4v-2.133333c2.133333-6.4 6.4-10.666667 12.8-14.933334l36.266667-17.066666-4.266667-36.266667c0-6.4 2.133333-12.8 6.4-17.066667 21.333333-21.333333 49.066667-36.266667 76.8-46.933333 6.4-2.133333 12.8 0 19.2 2.133333l32 23.466667 32-23.466667c4.266667-4.266667 12.8-4.266667 19.2-4.266666 29.866667 8.533333 57.6 23.466667 78.933334 44.8 4.266667 4.266667 6.4 10.666667 6.4 17.066666l-6.4 38.4 36.266666 14.933334c6.4 2.133333 10.666667 8.533333 12.8 14.933333 6.4 27.733333 8.533333 55.466667 2.133334 81.066667 0 2.133333 0 4.266667-2.133334 6.4v2.133333c-2.133333 6.4-6.4 10.666667-12.8 14.933333l-36.266666 17.066667 4.266666 38.4c0 6.4-2.133333 12.8-6.4 17.066667-21.333333 21.333333-49.066667 36.266667-76.8 46.933333-6.4 2.133333-12.8 0-19.2-2.133333l-32-23.466667-32 23.466667c0 2.133333-4.266667 4.266667-10.666666 4.266666z m-46.933334-68.266666c12.8 10.666667 27.733333 19.2 42.666667 23.466666l34.133333-25.6c6.4-6.4 17.066667-6.4 25.6 0l36.266667 25.6c14.933333-6.4 29.866667-14.933333 42.666667-25.6l-4.266667-42.666666c-2.133333-8.533333 4.266667-17.066667 12.8-21.333334l40.533333-19.2c2.133333-17.066667 2.133333-34.133333 0-49.066666l-40.533333-17.066667c-8.533333-4.266667-12.8-12.8-12.8-21.333333l4.266667-42.666667c-12.8-10.666667-27.733333-19.2-42.666667-23.466667L746.666667 635.733333c-6.4 6.4-17.066667 6.4-25.6 0L682.666667 605.866667c-14.933333 6.4-29.866667 14.933333-42.666667 25.6l4.266667 42.666666c2.133333 8.533333-4.266667 17.066667-12.8 21.333334l-40.533334 19.2c-2.133333 17.066667-2.133333 34.133333 0 49.066666l40.533334 17.066667c8.533333 4.266667 12.8 12.8 12.8 21.333333l-2.133334 46.933334z m247.466667-72.533334z" p-id="2715"></path><path d="M733.866667 812.8c-40.533333 0-72.533333-32-72.533334-72.533333s32-72.533333 72.533334-72.533334 72.533333 32 72.533333 72.533334-32 72.533333-72.533333 72.533333z m0-102.4c-17.066667 0-29.866667 12.8-29.866667 29.866667s12.8 29.866667 29.866667 29.866666 29.866667-12.8 29.866666-29.866666-12.8-29.866667-29.866666-29.866667z" p-id="2716"></path></svg>