<?xml version="1.0" standalone="no"?><!DOCTYPE svg PUBLIC "-//W3C//DTD SVG 1.1//EN" "http://www.w3.org/Graphics/SVG/1.1/DTD/svg11.dtd"><svg t="1606457520605" class="icon" viewBox="0 0 1024 1024" version="1.1" xmlns="http://www.w3.org/2000/svg" p-id="1612" xmlns:xlink="http://www.w3.org/1999/xlink" width="200" height="200"><defs><style type="text/css"></style></defs><path d="M810.666667 917.333333H213.333333c-59.733333 0-106.666667-49.066667-106.666666-106.666666V277.333333c0-59.733333 49.066667-106.666667 106.666666-106.666666h149.333334c17.066667 0 32 14.933333 32 32S379.733333 234.666667 362.666667 234.666667h-149.333334c-23.466667 0-42.666667 19.2-42.666666 42.666666v533.333334c0 23.466667 19.2 42.666667 42.666666 42.666666h597.333334c23.466667 0 42.666667-19.2 42.666666-42.666666V277.333333c0-23.466667-19.2-42.666667-42.666666-42.666666h-149.333334c-17.066667 0-32-14.933333-32-32S644.266667 170.666667 661.333333 170.666667h149.333334c59.733333 0 106.666667 49.066667 106.666666 106.666666v533.333334c0 57.6-49.066667 106.666667-106.666666 106.666666z" p-id="1613"></path><path d="M608 298.666667h-192c-40.533333 0-74.666667-34.133333-74.666667-74.666667v-42.666667C341.333333 140.8 375.466667 106.666667 416 106.666667h192C648.533333 106.666667 682.666667 140.8 682.666667 181.333333v42.666667c0 40.533333-34.133333 74.666667-74.666667 74.666667z m-192-128c-6.4 0-10.666667 4.266667-10.666667 10.666666v42.666667c0 6.4 4.266667 10.666667 10.666667 10.666667h192c6.4 0 10.666667-4.266667 10.666667-10.666667v-42.666667c0-6.4-4.266667-10.666667-10.666667-10.666666h-192zM309.333333 746.666667c-8.533333 0-17.066667-2.133333-23.466666-8.533334-12.8-12.8-12.8-32 0-44.8l170.666666-170.666666c6.4-6.4 17.066667-10.666667 25.6-8.533334 10.666667 2.133333 19.2 6.4 23.466667 14.933334l42.666667 72.533333 140.8-140.8c12.8-12.8 32-12.8 44.8 0s12.8 32 0 44.8l-170.666667 170.666667c-6.4 6.4-17.066667 10.666667-25.6 8.533333-10.666667-2.133333-19.2-6.4-23.466667-14.933333l-42.666666-72.533334-140.8 140.8c-4.266667 6.4-12.8 8.533333-21.333334 8.533334z" p-id="1614"></path></svg>