<?xml version="1.0" standalone="no"?><!DOCTYPE svg PUBLIC "-//W3C//DTD SVG 1.1//EN" "http://www.w3.org/Graphics/SVG/1.1/DTD/svg11.dtd"><svg t="1606457531571" class="icon" viewBox="0 0 1024 1024" version="1.1" xmlns="http://www.w3.org/2000/svg" p-id="1749" xmlns:xlink="http://www.w3.org/1999/xlink" width="200" height="200"><defs><style type="text/css"></style></defs><path d="M821.333333 917.333333h-618.666666C149.333333 917.333333 106.666667 874.666667 106.666667 821.333333v-426.666666c0-17.066667 14.933333-32 32-32h746.666666c17.066667 0 32 14.933333 32 32v426.666666c0 53.333333-42.666667 96-96 96zM170.666667 426.666667v394.666666c0 17.066667 14.933333 32 32 32h618.666666c17.066667 0 32-14.933333 32-32V426.666667H170.666667z" p-id="1750"></path><path d="M885.333333 426.666667h-746.666666c-10.666667 0-21.333333-6.4-27.733334-17.066667s-6.4-21.333333 0-32l149.333334-256c6.4-8.533333 17.066667-14.933333 27.733333-14.933333h469.333333c12.8 0 23.466667 6.4 27.733334 17.066666l128 256c4.266667 10.666667 4.266667 21.333333-2.133334 32-4.266667 8.533333-14.933333 14.933333-25.6 14.933334zM194.133333 362.666667h640l-96-192H307.2l-113.066667 192z" p-id="1751"></path><path d="M548.266667 891.733333l-53.333334-36.266666 51.2-76.8-93.866666-108.8c-8.533333-10.666667-10.666667-23.466667-4.266667-36.266667l78.933333-153.6-138.666666-198.4c-10.666667-14.933333-6.4-34.133333 6.4-44.8l170.666666-128 38.4 51.2-145.066666 108.8 132.266666 187.733333c6.4 10.666667 8.533333 23.466667 2.133334 34.133334l-78.933334 151.466666 96 110.933334c8.533333 10.666667 10.666667 25.6 2.133334 38.4l-64 100.266666z" p-id="1752"></path></svg>