<?xml version="1.0" standalone="no"?><!DOCTYPE svg PUBLIC "-//W3C//DTD SVG 1.1//EN" "http://www.w3.org/Graphics/SVG/1.1/DTD/svg11.dtd"><svg t="1606457581288" class="icon" viewBox="0 0 1024 1024" version="1.1" xmlns="http://www.w3.org/2000/svg" p-id="2986" xmlns:xlink="http://www.w3.org/1999/xlink" width="200" height="200"><defs><style type="text/css"></style></defs><path d="M691.2 917.333333H204.8C151.466667 917.333333 106.666667 872.533333 106.666667 819.2V311.466667C106.666667 258.133333 151.466667 213.333333 204.8 213.333333h486.4c53.333333 0 98.133333 44.8 98.133333 98.133334v507.733333c0 53.333333-44.8 98.133333-98.133333 98.133333zM204.8 277.333333c-19.2 0-34.133333 14.933333-34.133333 34.133334v507.733333c0 19.2 14.933333 34.133333 34.133333 34.133333h486.4c19.2 0 34.133333-14.933333 34.133333-34.133333V311.466667c0-19.2-14.933333-34.133333-34.133333-34.133334H204.8z" p-id="2987"></path><path d="M885.333333 768c-17.066667 0-32-14.933333-32-32v-533.333333c0-17.066667-14.933333-32-32-32h-469.333333c-17.066667 0-32-14.933333-32-32S334.933333 106.666667 352 106.666667h469.333333C874.666667 106.666667 917.333333 149.333333 917.333333 202.666667v533.333333c0 17.066667-14.933333 32-32 32zM266.666667 448h-21.333334c-17.066667 0-32-14.933333-32-32s14.933333-32 32-32h21.333334c17.066667 0 32 14.933333 32 32s-14.933333 32-32 32zM266.666667 597.333333h-21.333334c-17.066667 0-32-14.933333-32-32s14.933333-32 32-32h21.333334c17.066667 0 32 14.933333 32 32s-14.933333 32-32 32zM266.666667 746.666667h-21.333334c-17.066667 0-32-14.933333-32-32s14.933333-32 32-32h21.333334c17.066667 0 32 14.933333 32 32s-14.933333 32-32 32z" p-id="2988"></path><path d="M565.333333 448h-192c-17.066667 0-32-14.933333-32-32s14.933333-32 32-32h192c17.066667 0 32 14.933333 32 32s-14.933333 32-32 32zM565.333333 597.333333h-192c-17.066667 0-32-14.933333-32-32s14.933333-32 32-32h192c17.066667 0 32 14.933333 32 32s-14.933333 32-32 32zM650.666667 746.666667h-277.333334c-17.066667 0-32-14.933333-32-32s14.933333-32 32-32h277.333334c17.066667 0 32 14.933333 32 32s-14.933333 32-32 32z" p-id="2989"></path></svg>