<?xml version="1.0" standalone="no"?><!DOCTYPE svg PUBLIC "-//W3C//DTD SVG 1.1//EN" "http://www.w3.org/Graphics/SVG/1.1/DTD/svg11.dtd"><svg t="1606457555050" class="icon" viewBox="0 0 1024 1024" version="1.1" xmlns="http://www.w3.org/2000/svg" p-id="2162" xmlns:xlink="http://www.w3.org/1999/xlink" width="200" height="200"><defs><style type="text/css"></style></defs><path d="M810.666667 917.333333H213.333333c-59.733333 0-106.666667-49.066667-106.666666-106.666666V277.333333c0-59.733333 49.066667-106.666667 106.666666-106.666666h597.333334c59.733333 0 106.666667 49.066667 106.666666 106.666666v533.333334c0 57.6-49.066667 106.666667-106.666666 106.666666zM213.333333 234.666667c-23.466667 0-42.666667 19.2-42.666666 42.666666v533.333334c0 23.466667 19.2 42.666667 42.666666 42.666666h597.333334c23.466667 0 42.666667-19.2 42.666666-42.666666V277.333333c0-23.466667-19.2-42.666667-42.666666-42.666666H213.333333z" p-id="2163"></path><path d="M352 298.666667c-17.066667 0-32-14.933333-32-32v-128c0-17.066667 14.933333-32 32-32s32 14.933333 32 32v128c0 17.066667-14.933333 32-32 32zM672 298.666667c-17.066667 0-32-14.933333-32-32v-128c0-17.066667 14.933333-32 32-32s32 14.933333 32 32v128c0 17.066667-14.933333 32-32 32zM452.266667 723.2c-8.533333 0-17.066667-2.133333-23.466667-8.533333l-115.2-115.2c-12.8-12.8-12.8-32 0-44.8 12.8-12.8 32-12.8 44.8 0l93.866667 93.866666 209.066666-209.066666c12.8-12.8 32-12.8 44.8 0 12.8 12.8 12.8 32 0 44.8L473.6 714.666667c-6.4 6.4-14.933333 8.533333-21.333333 8.533333z" p-id="2164"></path></svg>