<svg class="icon" viewBox="0 0 1024 1024" version="1.1" xmlns="http://www.w3.org/2000/svg" id="mx_n_1564987886256" width="200" height="200"><defs><style/></defs><path d="M833.655 1022.776H190.286c-54.577 0-98.944-48.238-98.944-107.508V592.629c0-59.298 44.366-107.507 98.944-107.507V350.71c0-192.717 144.366-349.487 321.715-349.487 177.348 0 321.654 156.771 321.654 349.487 0 14.846-11.033 26.876-24.706 26.876-13.674 0-24.766-12.03-24.766-26.876 0-163.051-122.125-295.705-272.184-295.705-150.116 0-272.182 132.653-272.182 295.705v134.413h593.837c54.637 0 99.002 48.208 99.002 107.507v322.64c.001 59.27-44.364 107.506-99 107.506zm49.53-430.147c0-29.574-22.241-53.753-49.53-53.753H190.286c-27.23 0-49.471 24.179-49.471 53.753v322.64c0 29.576 22.241 53.753 49.471 53.753h643.37c27.288 0 49.53-24.177 49.53-53.753v-322.64zm-346.42 153.046v88.904c0 14.847-11.092 26.936-24.764 26.936s-24.766-12.089-24.766-26.936v-88.904c-14.495-9.331-24.706-25.82-24.706-45.54 0-29.633 22.125-53.751 49.472-53.751s49.471 24.118 49.471 53.752c0 19.719-10.212 36.208-24.706 45.539z"/></svg>