<?xml version="1.0" standalone="no"?><!DOCTYPE svg PUBLIC "-//W3C//DTD SVG 1.1//EN" "http://www.w3.org/Graphics/SVG/1.1/DTD/svg11.dtd"><svg t="1575876705879" class="icon" viewBox="0 0 1117 1024" version="1.1" xmlns="http://www.w3.org/2000/svg" p-id="15094" xmlns:xlink="http://www.w3.org/1999/xlink" width="139.625" height="128"><defs><style type="text/css"></style></defs><path d="M558.545455 744.727273a186.181818 186.181818 0 1 1 0-372.363637 186.181818 186.181818 0 0 1 0 372.363637zM390.981818 0h335.127273l102.213818 113.757091H1005.381818c61.44 0 111.709091 51.2 111.709091 113.757091v682.728727C1117.090909 972.8 1066.821818 1024 1005.381818 1024H111.709091C50.269091 1024 0 972.8 0 910.242909V227.514182c0-62.557091 50.269091-113.757091 111.709091-113.757091h177.058909L390.981818 0zM558.545455 837.818182a279.365818 279.365818 0 0 0 0-558.545455 279.365818 279.365818 0 0 0 0 558.545455z" p-id="15095" fill="#ffffff"></path></svg>