<svg class="icon" viewBox="0 0 1024 1024" xmlns="http://www.w3.org/2000/svg" width="200" height="200"><defs><style/></defs><path d="M219.429 121.93h-48.787a48.786 48.786 0 00-48.713 48.712v682.716a48.786 48.786 0 0048.713 48.713h48.787V609.499c0-53.833 43.666-97.499 97.499-97.499h390.144c53.833 0 97.5 43.666 97.5 97.5v292.57h48.786a48.786 48.786 0 0048.713-48.712V406.089a48.786 48.786 0 00-14.263-34.45L652.434 136.192a48.786 48.786 0 00-34.523-14.263H268.215v146.286a73.143 73.143 0 0073.143 73.143h292.571a24.357 24.357 0 110 48.713H341.358c-67.292 0-121.93-54.565-121.93-121.856V121.929zM617.91 73.142c25.892 0 50.688 10.24 68.974 28.526l235.373 235.52c18.286 18.285 28.526 43.008 28.6 68.9v447.269c0 53.833-43.667 97.5-97.5 97.5H170.642a97.5 97.5 0 01-97.5-97.5V170.642c0-53.833 43.667-97.5 97.5-97.5h447.269zM268.215 902.07h487.57V609.499a48.786 48.786 0 00-48.713-48.713H316.928a48.786 48.786 0 00-48.713 48.713v292.572z"/></svg>