<svg class="icon" viewBox="0 0 1024 1024" xmlns="http://www.w3.org/2000/svg" width="200" height="200"><path d="M772.977 985.605H251.433c-79.432 0-144.05-64.762-144.05-144.364V512.678c0-79.603 64.618-144.364 144.044-144.364h521.544c79.426 0 144.05 64.762 144.05 144.364v328.563c0 79.603-64.618 144.364-144.044 144.364zm-521.545-587.42c-62.991 0-114.24 51.366-114.24 114.494v328.563c0 63.14 51.249 114.5 114.24 114.5h521.544c63.001 0 114.246-51.366 114.246-114.5V512.679c0-63.134-51.244-114.494-114.246-114.494H251.432z"/><path d="M512.204 769.517c-72.243 0-131.023-58.913-131.023-131.321s58.78-131.321 131.023-131.321c72.248 0 131.023 58.913 131.023 131.321s-58.776 131.321-131.023 131.321zm0-232.773c-55.812 0-101.225 45.512-101.225 101.451s45.407 101.451 101.225 101.451 101.219-45.512 101.219-101.451c0-55.944-45.407-101.451-101.219-101.451z"/><path d="M512.204 857.837c-8.229-.012-14.897-6.687-14.897-14.918v-74.704c0-8.231 6.667-14.906 14.895-14.918 8.233 0 14.903 6.687 14.903 14.935v74.687c0 8.231-6.667 14.906-14.895 14.918zm234.284-462.45c-8.229-.012-14.897-6.687-14.897-14.918V244.446c0-97.611-98.417-177.032-219.387-177.032-120.96 0-219.377 79.42-219.377 177.032v131.045c0 8.231-6.667 14.906-14.895 14.918-8.233-.009-14.903-6.685-14.903-14.918V244.44c0-114.08 111.779-206.897 249.175-206.897 137.407 0 249.187 92.816 249.187 206.897v136.025c0 4.118-1.665 7.848-4.359 10.552a14.84 14.84 0 01-10.535 4.369h-.003z"/></svg>