<?xml version="1.0" standalone="no"?><!DOCTYPE svg PUBLIC "-//W3C//DTD SVG 1.1//EN" "http://www.w3.org/Graphics/SVG/1.1/DTD/svg11.dtd"><svg t="1570851516573" class="icon" viewBox="0 0 1024 1024" version="1.1" xmlns="http://www.w3.org/2000/svg" p-id="10296" xmlns:xlink="http://www.w3.org/1999/xlink" width="128" height="128"><defs><style type="text/css"></style></defs><path d="M432.106066 143.921208h-238.815011v238.809047h238.815011V143.921208zM256.139412 357.592303h-37.710406v-25.137951h37.710406v25.137951z m0-37.703448h-37.710406v-25.137951h37.710406v25.137951z m0-37.7114h-37.710406v-25.136957h37.710406v25.136957z m0-37.703448h-37.710406v-37.710406h37.710406v37.710406z m50.275903 113.125254h-37.710406v-25.138945h37.710406v25.138945z m0-37.710406h-37.710406v-25.137951h37.710406v25.137951z m0-37.7114h-37.710406v-25.136957h37.710406v25.136957z m0-37.703448h-37.710406v-37.710406h37.710406v37.710406z m50.276897 113.125254h-37.710406v-25.138945h37.710406v25.138945z m0-37.710406h-37.710406v-25.137951h37.710406v25.137951z m0-37.7114h-37.710406v-25.136957h37.710406v25.136957z m0-37.703448h-37.710406v-37.710406h37.710406v37.710406z m50.275902 113.125254H369.257708v-25.138945h37.710406v25.138945z m0-37.710406H369.257708v-25.137951h37.710406v25.137951z m0-37.7114H369.257708v-25.136957h37.710406v25.136957z m0-37.703448H369.257708v-37.710406h37.710406v37.710406z" p-id="10297" fill="#1296db"></path><path d="M944.680116 583.604245l-0.001988-0.001988c-14.396495-14.402459-35.606051-19.534621-50.654627-19.53462h-27.189623V338.538792c0-2.465187-1.33299-4.227597-2.215686-5.393591l-0.158051-0.20974c0.239561-6.241496-1.514897-14.226516-5.485041-25.00177-2.920452-7.931342-6.230562-16.919335-13.460121-25.388446L626.028825 24.265196c-8.451218-9.914426-18.288111-14.344805-26.172734-17.89547l-2.955242-1.345913c-9.640075-4.452247-18.637014-5.023813-25.398387-5.023813-1.245516 0-2.407534 0.099403-3.531778 0.194829-0.815102 0.069582-1.585473 0.135188-2.338946 0.156063-0.865798 0.027833-1.663007 0.108349-2.432384 0.186877-0.756455 0.07654-1.470166 0.14811-2.084475 0.14811H142.890899c-27.196581 0-46.832593 6.965148-61.798665 21.922273-17.510781 17.52768-26.023629 36.397296-26.02363 57.684387v851.284809c0 23.475938 9.974068 48.040336 26.031582 64.108784 18.014753 18.000837 40.536425 28.324802 61.789719 28.324802h638.466589c28.073313 0 50.03336-17.75233 60.627701-28.33673 11.335885-11.337873 24.849683-31.661751 24.849683-64.095862v-82.892914h27.189623c19.112159 0 38.522526-7.538702 50.655621-19.673784 14.411405-14.410411 22.675746-31.782028 22.675747-47.659623V631.119735c0.000994-16.025705-8.052614-32.900309-22.674753-47.51549zM590.985393 56.820577l207.591626 244.257309H627.553662c-11.001892 0-20.390478-7.081449-26.330783-13.024737-9.239482-9.233518-10.237485-23.431207-10.237486-29.106107V56.820577zM808.475541 962.162568c-13.101277 13.094319-23.329816 14.507826-27.118053 14.507826H142.890899c-8.140088 0-18.754309-5.556611-27.697571-14.500868-7.98005-7.98005-11.615207-21.452099-11.615207-30.592178V80.291545c0-6.356803 0.896612-13.459127 11.609242-24.170763 5.596373-5.596373 14.140036-8.092375 27.703536-8.092375h400.749978v210.923605c0 24.496804 8.774277 47.318672 24.074342 62.612773 17.571417 17.571417 38.263085 26.858612 59.838443 26.858612h191.933711v215.642252H380.75065c-17.367642 0-32.198526 6.3906-45.335588 19.53462-11.679818 11.67286-17.356707 27.216462-17.356708 47.518472v150.231291c0 20.392466 5.676889 35.981793 17.355714 47.659624 13.236465 13.238453 28.066355 19.673784 45.336582 19.673784h438.736723l0.000994 82.892914c0 9.487989-3.860801 23.431207-11.012826 30.586214z m-41.00163-246.391485h-30.07926c-26.9272 0-40.387321-11.602284-40.387321-34.811824 0-24.783084 14.193713-37.17562 42.584121-37.175619h66.747926v21.63003h-63.030265c-13.069468 0-19.603208 5.296176-19.603208 15.883559 0 8.7872 5.349854 13.181793 16.053538 13.181793h33.796921c13.743419 0 23.599197 2.534769 29.572306 7.603313 6.083446 5.296176 9.125169 14.194707 9.125169 26.699568 0 24.222452-14.139041 36.331691-42.415136 36.331691h-67.931812v-21.63003h63.876181c13.181793 0 19.772193-4.562584 19.772193-13.688747 0-9.346837-6.02778-14.023734-18.081353-14.023734z m-134.342763 12.335876c0.561625 3.83098 1.745512 6.818032 3.548677 8.957178 4.503937 5.296176 12.334882 7.941283 23.488861 7.941283h30.07926v20.109168h-32.27606c-4.958207 0-9.013838-0.110337-12.166892-0.337969-3.945294-0.337969-7.379657-0.900589-10.308061-1.689846-6.759384-1.801177-12.61818-5.349854-17.574399-10.646031-4.3936-4.61825-7.380651-9.912438-8.956184-15.884553-1.351877-4.955225-2.027815-11.827928-2.027816-20.615128v-72.156427h25.516676v71.31051c0.000994 5.973109 0.22465 10.308061 0.675938 13.011815zM486.960457 643.784634h29.910276l25.008728 38.359506 24.840737-38.359506h29.403322l-39.035445 58.974634 41.907189 62.35532h-30.586214l-25.516676-42.246152-27.037537 42.246152h-30.248245l42.415137-60.665474-41.061272-60.66448z" p-id="10298" fill="#1296db"></path></svg>