<svg class="icon" viewBox="0 0 1024 1024" xmlns="http://www.w3.org/2000/svg" width="128" height="128"><defs><style/></defs><path d="M979.2 585.6l-89.6 108.8 35.2 3.2s-115.2 92.8-217.6 99.2c-102.4 6.4-150.4-131.2-150.4-131.2V438.4h137.6v-67.2H563.2v-89.6c57.6-19.2 96-73.6 96-137.6 0-80-64-144-144-144H512c-80 0-144 64-144 144 0 64 41.6 118.4 96 137.6v89.6H332.8v67.2h137.6v227.2S419.2 800 316.8 796.8c-102.4-6.4-217.6-99.2-217.6-99.2l35.2-3.2-92.8-108.8L9.6 720l38.4-9.6S124.8 848 243.2 899.2C361.6 953.6 480 1020.8 505.6 1024c25.6-3.2 144-70.4 259.2-124.8C880 844.8 960 710.4 960 710.4l38.4 9.6-19.2-134.4zM515.2 224c-44.8 0-80-35.2-80-80 0-41.6 35.2-76.8 76.8-76.8h3.2c41.6 0 76.8 35.2 76.8 76.8 3.2 44.8-35.2 80-76.8 80z"/></svg>