<svg class="icon" viewBox="0 0 1024 1024" xmlns="http://www.w3.org/2000/svg" width="128" height="128"><defs><style/></defs><path d="M291.499 765.419c43.349 0 83.605-28.16 108.352-65.728 27.882 37.546 65.002 65.706 108.373 65.706 43.328 0 80.49-28.16 108.373-65.706 27.84 37.546 65.003 65.706 108.331 65.706l65.024-212.736c3.093-9.365 0-18.773 0-25.024-3.093-9.386-9.301-12.522-15.467-15.637l-49.536-21.888V339.947c0-37.547-24.746-65.707-55.722-65.707h-80.491l-18.603-81.323H449.387l-21.654 81.302h-80.512c-30.933 0-55.722 31.317-55.722 65.728v150.165l-49.536 18.773c-6.187 3.115-12.374 9.387-15.467 15.638-3.115 9.386-3.115 15.637 0 25.024l65.003 215.872m55.722-425.472h321.984v128.256l-160.981-62.571-161.003 62.57V339.948m272.47 425.493c-71.211 56.32-148.608 53.163-219.84-3.136 0 0-117.654 90.73-185.75 90.73h30.955c40.256 0 111.467-18.773 148.608-40.66 74.325 43.797 160.981 43.797 235.285 0 37.163 21.866 108.374 40.66 148.608 40.66h30.934c-68.096 3.137-188.822-87.594-188.822-87.594"/></svg>