<svg class="icon" viewBox="0 0 1171 1024" xmlns="http://www.w3.org/2000/svg" width="146.375" height="128"><defs><style/></defs><path d="M926.6 755.81v-73.143h243.81v73.143H926.6zM853.459 512h316.952v73.143H853.458V512zM926.6 341.333h243.81v73.143H926.6v-73.143zm82.553 570.368c10.07 21.017 15.214 55.418 14.507 93.867 0 4.56.415 8.997-1.804 12.702-2.146 3.56-5.632 5.706-9.216 5.706H11.193c-3.73 0-7.168-2.146-9.362-5.706-2.219-3.705-1.804-8.289-1.804-12.702-.268-34.304 2.877-64.146 20.87-102.595 60.708-129.268 449.097-142.555 326.266-323.974-74.484-92.16-98.548-158.16-98.548-256.585C248.615 144.579 367.228 0 512.636 0c145.53 0 263.851 144.579 263.875 322.414 0 98.426-47.786 190.293-105.618 258.292C494.23 786.554 944.691 776.436 1009.154 911.7z"/></svg>