<svg class="icon" viewBox="0 0 1024 1024" xmlns="http://www.w3.org/2000/svg" width="128" height="128"><defs><style/></defs><path d="M184.764 145.496h26.178v706.829h628.294v26.178H184.764V145.496zm0 0"/><path d="M420.372 459.644v340.325H263.3V616.717l157.073-157.073zm209.434 26.178v314.147H472.733V459.644l78.534 104.712 78.54-78.534zm209.43-157.074v471.22H682.163V459.645l157.073-130.896zm0 0"/><path d="M289.481 512l-26.182-26.178L446.554 302.57l104.713 104.717 209.434-183.256-52.36-52.357h130.895V302.57l-52.357-52.357-235.612 209.43-104.713-104.716L289.481 512zm0 0"/></svg>