<svg class="icon" viewBox="0 0 1024 1024" xmlns="http://www.w3.org/2000/svg" width="128" height="128"><defs><style/></defs><path d="M522.625 1014.716c-11.73 11.917-31.591 12.439-44.024 1.117l-80.543-73.295c-12.433-11.322-20.33-33.817-17.672-49.98L409.084 723.1c2.737-16.164 19.08-29.423 36.283-29.423h108.068c17.281 0 33.077 13.334 35.188 29.497l22.13 168.787c2.111 16.238-5.709 39.255-17.594 51.247l-70.534 71.508zm-79.37-142.27c-2.736 16.163 5.162 38.658 17.673 49.98l15.561 14.153c12.434 11.322 32.296 10.875 44.025-1.117l11.26-11.397c11.808-11.918 19.706-35.009 17.595-51.247l-12.356-93.853c-2.11-16.238-17.985-29.497-35.188-29.497h-6.49c-17.204 0-33.547 13.259-36.205 29.422l-15.874 93.556zM50.096 978.264c8.662-130.632 72.419-252.286 174.804-333.62l6.165-4.567v.155c5.775-3.637 12.486-5.417 19.275-5.417 23.49 0 37.537 11.299 37.537 30.646 0 11.221-5.15 21.591-13.735 28.865l.078.155-5.463 3.947C182.915 760.726 134.531 855.14 125.09 979.27l-.078 1.547c0 .93.078 1.935.078 3.019 0 20.972-16.7 37.92-37.38 37.92-19.978 0-36.288-15.865-37.38-35.831h-.78l.546-7.661zm120.568-635.976C170.663 153.538 323.85 0 512.078 0c188.305 0 341.415 153.538 341.415 342.288 0 101.765-44.247 196.643-121.973 262.036 139.454 75.686 232.084 219.628 242.385 378.738l.39 6.655c0 .155.157.31.157.464v1.626c0 17.721-14.281 32.193-31.606 32.193-17.714 0-31.839-14.549-31.839-32.193v-.93h-.546l-.469-6.5c-11.471-151.294-105.819-283.55-240.98-338.109-40.346 18.883-101.761 38.695-156.934 38.695-51.193 0-100.825-11.3-148.038-34.051l-34.492-20.74-28.25-18.96c-82.954-65.47-130.635-163.522-130.635-268.924zm341.493 273.49c150.379 0 272.976-122.738 272.976-273.49S662.77 68.875 512.156 68.875c-150.457 0-272.898 122.583-272.898 273.413 0 150.752 122.441 273.49 272.898 273.49z"/></svg>