<svg class="icon" viewBox="0 0 1025 1024" xmlns="http://www.w3.org/2000/svg" width="128.125" height="128"><defs><style/></defs><path d="M1015.174 337.92c6.826-3.413 10.24-6.827 10.24-13.653v-71.68c0-3.414-3.414-10.24-3.414-13.654-17.066-17.066-40.96-27.306-64.853-30.72l-81.92-81.92c-13.653-20.48-68.267-27.306-78.507-27.306H533.894c-13.654 3.413-20.48 10.24-20.48 20.48V614.4H223.28c10.24 0 17.067-6.827 17.067-17.067s-6.827-17.066-17.067-17.066h-68.266c-10.24 0-17.067 6.826-17.067 17.066s6.827 17.067 17.067 17.067H86.747c-6.827 0-13.653 3.413-17.067 10.24L1.414 829.44c-3.414 6.827 0 10.24 3.413 17.067 3.413 3.413 6.827 6.826 13.653 6.826h92.16c13.654 40.96 51.2 68.267 95.574 68.267s81.92-27.307 95.573-68.267h419.84c13.653 40.96 51.2 68.267 95.573 68.267 44.374 0 81.92-30.72 95.574-68.267h10.24c58.026 0 102.4-47.786 102.4-105.813V532.48c0-6.827-3.414-10.24-6.827-13.653L991.28 501.76V351.573l23.894-13.653zM684.08 597.333c0-10.24 6.827-17.066 17.067-17.066h34.133c10.24 0 17.067 6.826 17.067 17.066S745.52 614.4 735.28 614.4h-34.133c-10.24 0-17.067-6.827-17.067-17.067zM871.814 512c10.24 0 17.066 6.827 17.066 17.067s-6.826 17.066-17.066 17.066H701.147c-10.24 0-17.067-6.826-17.067-17.066v-204.8c0-10.24 6.827-17.067 17.067-17.067s17.067 6.827 17.067 17.067V512h153.6zM632.88 238.933h204.8c10.24 0 17.067 6.827 17.067 17.067s-6.827 17.067-17.067 17.067h-204.8c-10.24 0-17.066-6.827-17.066-17.067s6.826-17.067 17.066-17.067zM206.214 887.467c-34.134 0-58.027-20.48-68.267-51.2V819.2c0-37.547 30.72-68.267 68.267-68.267s68.266 30.72 68.266 68.267v13.653c-6.826 30.72-37.546 54.614-68.266 54.614zm614.4 0c-30.72 0-58.027-23.894-68.267-51.2V819.2c0-37.547 30.72-68.267 68.267-68.267h13.653c30.72 6.827 54.613 34.134 54.613 68.267v13.653c-6.826 30.72-34.133 54.614-68.266 54.614z"/></svg>