<svg class="icon" viewBox="0 0 1024 1024" xmlns="http://www.w3.org/2000/svg" width="128" height="128"><defs><style/></defs><path d="M773.906 33.343H250.09c-119.7 0-216.75 97.014-216.75 216.75v523.813c0 119.665 97.05 216.75 216.75 216.75h523.816c119.665 0 216.75-97.085 216.75-216.75V250.094c0-119.737-97.085-216.75-216.75-216.75zM235.63 385.635a14.215 14.215 0 0114.219-14.183h344.85a14.212 14.212 0 0014.25-14.251v-84.53c0-12.7 15.242-18.98 24.273-10.017L742.02 371.452l42.263 42.263c8.959 8.959 2.611 24.272-10.09 24.272H249.844a14.215 14.215 0 01-14.219-14.183v-38.17zm552.742 252.662c0 7.76-6.42 14.182-14.251 14.182H429.27a14.208 14.208 0 00-14.219 14.252v84.456c0 12.702-15.31 19.05-24.308 10.09l-151.028-151.06c-8.927-9.032-2.645-24.273 10.017-24.273h524.453c7.76 0 14.182 6.351 14.182 14.252v38.1z"/></svg>