<svg class="icon" viewBox="0 0 1024 1024" xmlns="http://www.w3.org/2000/svg" width="128" height="128"><defs><style/></defs><path d="M131.584 173.056v-20.48c0-28.16 22.528-51.2 50.688-51.2h659.456c27.648 0 50.688 23.04 50.688 51.2v20.48H131.584zm770.56 55.296H121.856c-30.72 0-55.808 25.6-55.808 56.32v28.672H957.44v-28.672c.512-30.72-24.576-56.32-55.296-56.32zm60.928 140.8H60.928C27.648 369.152 0 396.8 0 431.104v429.568c0 34.304 27.648 61.952 60.928 61.952H962.56c33.792 0 60.928-27.648 60.928-61.952V431.104c.512-34.304-27.136-61.952-60.416-61.952zM202.24 484.864c44.544 0 80.384 36.352 80.384 81.408s-35.84 81.408-80.384 81.408-80.384-36.352-80.384-81.408 35.84-81.408 80.384-81.408zM908.8 791.552H120.832v-56.32H908.8v56.32zm0-198.144H348.672v-56.32H908.8v56.32z"/></svg>